<?xml version="1.0" encoding="UTF-8"?> <svg xmlns="http://www.w3.org/2000/svg" width="218" height="2065" viewBox="0 0 218 2065" fill="none"> <g clip-path="url(#clip0)"> <path d="M38.5417 49.2372H5.20833C2.3375 49.2372 0 46.9353 0 44.1083V11.2836C0 8.45662 2.3375 6.15479 5.20833 6.15479H31.25C31.825 6.15479 32.2917 6.61433 32.2917 7.18056C32.2917 7.74678 31.825 8.20633 31.25 8.20633H5.20833C3.48542 8.20633 2.08333 9.58701 2.08333 11.2836V44.1083C2.08333 45.8049 3.48542 47.1856 5.20833 47.1856H38.5417C40.2646 47.1856 41.6667 45.8049 41.6667 44.1083V26.6702C41.6667 26.104 42.1333 25.6444 42.7083 25.6444C43.2833 25.6444 43.75 26.104 43.75 26.6702V44.1083C43.75 46.9353 41.4125 49.2372 38.5417 49.2372Z" fill="#FFA600"></path> <path d="M26.0417 31.286C25.775 31.286 25.5084 31.1855 25.3042 30.9865L15.9292 21.7545C15.5229 21.3545 15.5229 20.7042 15.9292 20.3041C16.3354 19.9041 16.9959 19.9041 17.4021 20.3041L26.0396 28.8098L48.2209 6.96703C48.6271 6.56698 49.2875 6.56698 49.6938 6.96703C50.1 7.36708 50.1 8.01742 49.6938 8.41747L26.7771 30.9844C26.575 31.1855 26.3084 31.286 26.0417 31.286V31.286Z" fill="#FFA600"></path> </g> <g clip-path="url(#clip1)"> <path d="M205.542 345.644H172.208C169.337 345.644 167 343.342 167 340.515V307.69C167 304.863 169.337 302.562 172.208 302.562H198.25C198.825 302.562 199.292 303.021 199.292 303.587C199.292 304.154 198.825 304.613 198.25 304.613H172.208C170.485 304.613 169.083 305.994 169.083 307.69V340.515C169.083 342.212 170.485 343.592 172.208 343.592H205.542C207.265 343.592 208.667 342.212 208.667 340.515V323.077C208.667 322.511 209.133 322.051 209.708 322.051C210.283 322.051 210.75 322.511 210.75 323.077V340.515C210.75 343.342 208.412 345.644 205.542 345.644Z" fill="#FFA600"></path> <path d="M193.042 327.693C192.775 327.693 192.508 327.592 192.304 327.393L182.929 318.161C182.523 317.761 182.523 317.111 182.929 316.711C183.335 316.311 183.996 316.311 184.402 316.711L193.04 325.217L215.221 303.374C215.627 302.974 216.288 302.974 216.694 303.374C217.1 303.774 217.1 304.424 216.694 304.824L193.777 327.391C193.575 327.592 193.308 327.693 193.042 327.693V327.693Z" fill="#FFA600"></path> </g> <g clip-path="url(#clip2)"> <path d="M205.542 918.763H172.208C169.337 918.763 167 916.461 167 913.634V880.809C167 877.982 169.337 875.68 172.208 875.68H198.25C198.825 875.68 199.292 876.14 199.292 876.706C199.292 877.272 198.825 877.732 198.25 877.732H172.208C170.485 877.732 169.083 879.112 169.083 880.809V913.634C169.083 915.33 170.485 916.711 172.208 916.711H205.542C207.265 916.711 208.667 915.33 208.667 913.634V896.196C208.667 895.629 209.133 895.17 209.708 895.17C210.283 895.17 210.75 895.629 210.75 896.196V913.634C210.75 916.461 208.412 918.763 205.542 918.763Z" fill="#FFA600"></path> <path d="M193.042 900.811C192.775 900.811 192.508 900.711 192.304 900.512L182.929 891.28C182.523 890.88 182.523 890.23 182.929 889.829C183.335 889.429 183.996 889.429 184.402 889.829L193.04 898.335L215.221 876.492C215.627 876.092 216.288 876.092 216.694 876.492C217.1 876.892 217.1 877.543 216.694 877.943L193.777 900.51C193.575 900.711 193.308 900.811 193.042 900.811V900.811Z" fill="#FFA600"></path> </g> <g clip-path="url(#clip3)"> <path d="M38.5417 1194.49H5.20833C2.3375 1194.49 0 1192.19 0 1189.36V1156.54C0 1153.71 2.3375 1151.41 5.20833 1151.41H31.25C31.825 1151.41 32.2917 1151.87 32.2917 1152.43C32.2917 1153 31.825 1153.46 31.25 1153.46H5.20833C3.48542 1153.46 2.08333 1154.84 2.08333 1156.54V1189.36C2.08333 1191.06 3.48542 1192.44 5.20833 1192.44H38.5417C40.2646 1192.44 41.6667 1191.06 41.6667 1189.36V1171.92C41.6667 1171.36 42.1333 1170.9 42.7083 1170.9C43.2833 1170.9 43.75 1171.36 43.75 1171.92V1189.36C43.75 1192.19 41.4125 1194.49 38.5417 1194.49Z" fill="#FFA600"></path> <path d="M26.0417 1176.54C25.775 1176.54 25.5084 1176.44 25.3042 1176.24L15.9292 1167.01C15.5229 1166.61 15.5229 1165.96 15.9292 1165.56C16.3354 1165.16 16.9959 1165.16 17.4021 1165.56L26.0396 1174.06L48.2209 1152.22C48.6271 1151.82 49.2875 1151.82 49.6938 1152.22C50.1 1152.62 50.1 1153.27 49.6938 1153.67L26.7771 1176.24C26.575 1176.44 26.3084 1176.54 26.0417 1176.54V1176.54Z" fill="#FFA600"></path> </g> <g clip-path="url(#clip4)"> <path d="M38.5417 1768.59H5.20833C2.3375 1768.59 0 1766.29 0 1763.46V1730.64C0 1727.81 2.3375 1725.51 5.20833 1725.51H31.25C31.825 1725.51 32.2917 1725.97 32.2917 1726.54C32.2917 1727.1 31.825 1727.56 31.25 1727.56H5.20833C3.48542 1727.56 2.08333 1728.94 2.08333 1730.64V1763.46C2.08333 1765.16 3.48542 1766.54 5.20833 1766.54H38.5417C40.2646 1766.54 41.6667 1765.16 41.6667 1763.46V1746.03C41.6667 1745.46 42.1333 1745 42.7083 1745C43.2833 1745 43.75 1745.46 43.75 1746.03V1763.46C43.75 1766.29 41.4125 1768.59 38.5417 1768.59Z" fill="#FFA600"></path> <path d="M26.0417 1750.64C25.775 1750.64 25.5084 1750.54 25.3042 1750.34L15.9292 1741.11C15.5229 1740.71 15.5229 1740.06 15.9292 1739.66C16.3354 1739.26 16.9959 1739.26 17.4021 1739.66L26.0396 1748.17L48.2209 1726.32C48.6271 1725.92 49.2875 1725.92 49.6938 1726.32C50.1 1726.72 50.1 1727.37 49.6938 1727.77L26.7771 1750.34C26.575 1750.54 26.3084 1750.64 26.0417 1750.64V1750.64Z" fill="#FFA600"></path> </g> <g clip-path="url(#clip5)"> <path d="M205.542 1492.87H172.208C169.337 1492.87 167 1490.56 167 1487.74V1454.91C167 1452.09 169.337 1449.78 172.208 1449.78H198.25C198.825 1449.78 199.292 1450.24 199.292 1450.81C199.292 1451.38 198.825 1451.84 198.25 1451.84H172.208C170.485 1451.84 169.083 1453.22 169.083 1454.91V1487.74C169.083 1489.43 170.485 1490.81 172.208 1490.81H205.542C207.265 1490.81 208.667 1489.43 208.667 1487.74V1470.3C208.667 1469.73 209.133 1469.27 209.708 1469.27C210.283 1469.27 210.75 1469.73 210.75 1470.3V1487.74C210.75 1490.56 208.412 1492.87 205.542 1492.87Z" fill="#FFA600"></path> <path d="M193.042 1474.91C192.775 1474.91 192.508 1474.81 192.304 1474.62L182.929 1465.38C182.523 1464.98 182.523 1464.33 182.929 1463.93C183.335 1463.53 183.996 1463.53 184.402 1463.93L193.04 1472.44L215.221 1450.6C215.627 1450.2 216.288 1450.2 216.694 1450.6C217.1 1451 217.1 1451.65 216.694 1452.05L193.777 1474.61C193.575 1474.81 193.308 1474.91 193.042 1474.91V1474.91Z" fill="#FFA600"></path> </g> <g clip-path="url(#clip6)"> <path d="M205.542 2065H172.208C169.337 2065 167 2062.7 167 2059.87V2027.05C167 2024.22 169.337 2021.92 172.208 2021.92H198.25C198.825 2021.92 199.292 2022.38 199.292 2022.94C199.292 2023.51 198.825 2023.97 198.25 2023.97H172.208C170.485 2023.97 169.083 2025.35 169.083 2027.05V2059.87C169.083 2061.57 170.485 2062.95 172.208 2062.95H205.542C207.265 2062.95 208.667 2061.57 208.667 2059.87V2042.43C208.667 2041.87 209.133 2041.41 209.708 2041.41C210.283 2041.41 210.75 2041.87 210.75 2042.43V2059.87C210.75 2062.7 208.412 2065 205.542 2065Z" fill="#FFA600"></path> <path d="M193.042 2047.05C192.775 2047.05 192.508 2046.95 192.304 2046.75L182.929 2037.52C182.523 2037.12 182.523 2036.47 182.929 2036.07C183.335 2035.67 183.996 2035.67 184.402 2036.07L193.04 2044.57L215.221 2022.73C215.627 2022.33 216.288 2022.33 216.694 2022.73C217.1 2023.13 217.1 2023.78 216.694 2024.18L193.777 2046.75C193.575 2046.95 193.308 2047.05 193.042 2047.05V2047.05Z" fill="#FFA600"></path> </g> <g clip-path="url(#clip7)"> <path d="M38.5417 621.371H5.20833C2.3375 621.371 0 619.069 0 616.242V583.417C0 580.59 2.3375 578.289 5.20833 578.289H31.25C31.825 578.289 32.2917 578.748 32.2917 579.314C32.2917 579.881 31.825 580.34 31.25 580.34H5.20833C3.48542 580.34 2.08333 581.721 2.08333 583.417V616.242C2.08333 617.939 3.48542 619.319 5.20833 619.319H38.5417C40.2646 619.319 41.6667 617.939 41.6667 616.242V598.804C41.6667 598.238 42.1333 597.778 42.7083 597.778C43.2833 597.778 43.75 598.238 43.75 598.804V616.242C43.75 619.069 41.4125 621.371 38.5417 621.371Z" fill="#FFA600"></path> <path d="M26.0417 603.42C25.775 603.42 25.5084 603.319 25.3042 603.12L15.9292 593.888C15.5229 593.488 15.5229 592.838 15.9292 592.438C16.3354 592.038 16.9959 592.038 17.4021 592.438L26.0396 600.944L48.2209 579.101C48.6271 578.701 49.2875 578.701 49.6938 579.101C50.1 579.501 50.1 580.151 49.6938 580.551L26.7771 603.118C26.575 603.319 26.3084 603.42 26.0417 603.42V603.42Z" fill="#FFA600"></path> </g> <line y1="-1" x2="309.769" y2="-1" transform="matrix(0.290539 0.956863 -0.643063 0.765814 60 1171.84)" stroke="#FFA600" stroke-width="2"></line> <line y1="-1" x2="309.769" y2="-1" transform="matrix(0.290024 0.957019 -0.642333 0.766426 60 24.6187)" stroke="#FFA600" stroke-width="2"></line> <line y1="-1" x2="309.769" y2="-1" transform="matrix(0.290539 0.956863 -0.643063 0.765814 60 597.737)" stroke="#FFA600" stroke-width="2"></line> <line y1="-1" x2="291.917" y2="-1" transform="matrix(-0.308307 0.951287 -0.618304 -0.785939 150 321.025)" stroke="#FFA600" stroke-width="2"></line> <line y1="-1" x2="291.917" y2="-1" transform="matrix(-0.308307 0.951287 -0.618304 -0.785939 150 894.144)" stroke="#FFA600" stroke-width="2"></line> <line y1="-1" x2="309.769" y2="-1" transform="matrix(0.290539 0.956863 -0.643063 0.765814 60 1743.97)" stroke="#FFA600" stroke-width="2"></line> <line y1="-1" x2="291.917" y2="-1" transform="matrix(-0.308307 0.951287 -0.618304 -0.785939 150 1466.28)" stroke="#FFA600" stroke-width="2"></line> <defs> <clipPath id="clip0"> <rect width="50" height="49.237" fill="white"></rect> </clipPath> <clipPath id="clip1"> <rect width="50" height="49.237" fill="white" transform="translate(168 296.407)"></rect> </clipPath> <clipPath id="clip2"> <rect width="50" height="49.237" fill="white" transform="translate(168 869.525)"></rect> </clipPath> <clipPath id="clip3"> <rect width="50" height="49.237" fill="white" transform="translate(0 1145.25)"></rect> </clipPath> <clipPath id="clip4"> <rect width="50" height="49.237" fill="white" transform="translate(0 1719.36)"></rect> </clipPath> <clipPath id="clip5"> <rect width="50" height="49.237" fill="white" transform="translate(168 1443.63)"></rect> </clipPath> <clipPath id="clip6"> <rect width="50" height="49.237" fill="white" transform="translate(168 2015.76)"></rect> </clipPath> <clipPath id="clip7"> <rect width="50" height="49.237" fill="white" transform="translate(0 572.134)"></rect> </clipPath> </defs> </svg> 